# xmcd
#
# Track frame offsets:
#	182
#	14537
#	36827
#	60430
#	78640
#	87730
#	114540
#	127205
#	147650
#	155647
#	188127
#	208502
#	242080
#	262790
#	273222
#	283980
#	304567
#	319440
#	324147
#	337215
#
# Disc length: 4678 seconds
#
# Revision: 1
# Processed by: cddbd v1.5.1PL0 Copyright (c) Steve Scherf et al.
# Submitted via: CDex 1.50Beta5
#
DISCID=33124414
DTITLE=Various Artist - HITS 1 CLASSICS
DYEAR=1900
DGENRE=Classical
TTITLE0=歌劇「椿姫」より(乾杯の歌)
TTITLE1=ゴルトベルク変奏曲 アリア
TTITLE2=(悲歌のシンフォニー) 第二楽章より
TTITLE3=ジムノペディ第一番
TTITLE4=(グレゴリアン・チャント) ダヴィドの子にホザンナ
TTITLE5=2台のピアノのためのソナタ K.448 アンダンテより
TTITLE6=イエスタデイ
TTITLE7=(別れの歌)
TTITLE8=カンパニー ?
TTITLE9=パッヘルベルのカノン
TTITLE10=エレクトリック・カウンターポイント
TTITLE11=ヴァイオリン協奏曲 第一楽章より
TTITLE12=ジ・エンターテイナー
TTITLE13=涙のパヴァーヌ
TTITLE14=(ブルガリアン・ヴォイス) 聖ラザルスへのラメント
TTITLE15=交響曲二番 アダージョより
TTITLE16=レクイエム ピエ・イエズス
TTITLE17=熊蜂の飛行
TTITLE18=紫のけむり
TTITLE19=わが心に歌えば
EXTD=
EXTT0=
EXTT1=
EXTT2=
EXTT3=
EXTT4=
EXTT5=
EXTT6=
EXTT7=
EXTT8=
EXTT9=
EXTT10=
EXTT11=
EXTT12=
EXTT13=
EXTT14=
EXTT15=
EXTT16=
EXTT17=
EXTT18=
EXTT19=
PLAYORDER=
